<?xml version="1.0" standalone="no"?>
<!DOCTYPE svg PUBLIC "-//W3C//DTD SVG 20010904//EN"
 "http://www.w3.org/TR/2001/REC-SVG-20010904/DTD/svg10.dtd">
<svg version="1.0" xmlns="http://www.w3.org/2000/svg"
 width="788.000000pt" height="120.000000pt" viewBox="0 0 788.000000 120.000000"
 preserveAspectRatio="xMidYMid meet">
<metadata>
Created by potrace 1.15, written by Peter Selinger 2001-2017
</metadata>
<g transform="translate(0.000000,120.000000) scale(0.100000,-0.100000)"
fill="#000000" stroke="none">
<path d="M490 1163 c-219 -20 -372 -145 -421 -343 -18 -74 -18 -356 0 -430 46
-189 195 -317 396 -340 58 -6 650 -10 1643 -10 l1552 0 0 565 0 565 -1567 -2
c-863 0 -1584 -3 -1603 -5z m333 -287 c25 -7 59 -23 76 -35 l30 -22 -36 -57
c-20 -31 -37 -59 -39 -60 -1 -2 -17 7 -34 20 -23 17 -44 23 -80 22 -174 -2
-191 -250 -20 -279 31 -5 51 -2 86 15 25 12 46 21 48 19 32 -42 67 -103 63
-113 -8 -21 -90 -56 -144 -63 -33 -3 -70 0 -109 12 -110 31 -204 156 -204 270
0 108 88 230 190 265 66 23 111 25 173 6z m477 -22 c86 -47 150 -153 150 -249
0 -97 -74 -211 -168 -256 -100 -49 -237 -22 -322 63 -75 75 -98 211 -53 310
67 148 250 210 393 132z m528 -221 l2 -193 -28 0 c-27 0 -30 3 -36 46 -8 64
-8 329 1 338 4 4 19 6 33 4 l25 -3 3 -192z m1250 109 l3 -83 22 16 c26 18 76
19 98 2 30 -23 39 -56 39 -146 l0 -91 -30 0 -30 0 0 76 c0 91 -10 114 -50 114
-40 0 -50 -23 -50 -114 l0 -76 -35 0 -35 0 0 188 c0 104 3 192 7 196 4 4 19 6
33 4 24 -3 25 -5 28 -86z m-997 -81 c28 -28 29 -33 29 -125 l0 -96 -30 0 c-16
0 -30 4 -30 9 0 5 -14 2 -31 -6 -66 -33 -154 24 -133 84 12 35 66 63 122 63
31 0 42 4 42 15 0 27 -46 40 -86 26 -35 -13 -64 -3 -64 20 0 17 56 38 103 39
41 0 53 -5 78 -29z m159 -52 c0 -92 10 -119 45 -119 39 0 55 35 55 122 l0 78
30 0 30 0 0 -125 0 -125 -30 0 c-16 0 -30 4 -30 9 0 6 -12 3 -27 -5 -42 -21
-71 -17 -104 15 -28 29 -29 32 -29 130 l0 101 30 0 30 0 0 -81z m290 66 c0 -8
4 -15 9 -15 5 0 14 7 21 15 7 9 29 15 50 15 30 0 44 -6 64 -31 24 -28 26 -38
26 -125 l0 -94 -30 0 c-28 0 -30 3 -30 38 0 133 -25 181 -76 147 -22 -14 -24
-21 -24 -100 l0 -85 -35 0 -35 0 0 118 c0 65 3 122 7 125 13 13 53 7 53 -8z
m421 -1 c30 -15 30 -16 13 -35 -13 -15 -25 -18 -44 -13 -40 11 -64 6 -82 -17
-39 -47 -11 -119 46 -119 17 0 37 5 42 10 7 7 18 3 33 -14 l22 -23 -35 -17
c-61 -29 -131 -13 -169 40 -81 110 51 252 174 188z"/>
<path d="M1105 732 c-136 -64 -84 -272 67 -272 70 0 138 71 138 143 0 106
-109 174 -205 129z"/>
<path d="M4203 722 c-35 -5 -63 -53 -63 -106 0 -36 6 -52 30 -80 34 -39 71
-51 124 -40 35 6 36 8 36 50 l0 44 -40 0 c-38 0 -40 2 -40 30 l0 30 75 0 75 0
0 -96 0 -95 -35 -15 c-76 -31 -211 -9 -257 42 -26 29 -48 89 -48 129 0 19 -3
35 -6 35 -12 0 -44 -43 -44 -60 0 -9 -6 -22 -12 -28 -10 -10 -10 -15 2 -22 10
-7 11 -10 3 -10 -16 0 -17 -32 -1 -48 9 -9 9 -12 0 -12 -8 0 -9 -7 -2 -24 5
-13 6 -27 3 -30 -3 -3 2 -8 11 -12 9 -3 14 -10 11 -15 -7 -11 17 -49 31 -49 6
0 19 -9 29 -20 10 -11 24 -20 32 -20 7 0 13 -4 13 -10 0 -5 12 -10 26 -10 14
0 23 -4 20 -8 -3 -5 0 -10 7 -11 110 -17 349 -22 339 -7 -3 6 1 6 9 -1 8 -7
20 -8 27 -4 8 4 24 6 38 3 16 -3 24 0 24 9 0 11 2 11 10 -1 9 -13 10 -13 10 0
0 9 3 11 8 5 4 -5 25 -10 47 -11 52 -1 134 -12 146 -20 5 -3 9 1 9 8 0 9 3 9
10 -2 5 -8 13 -15 17 -15 4 -1 31 -9 59 -18 29 -10 56 -17 60 -15 5 1 20 -4
34 -12 28 -16 210 -23 210 -8 0 5 9 6 20 3 12 -4 20 -2 20 5 0 7 6 10 14 7 7
-3 19 0 25 6 6 6 11 7 11 1 0 -5 5 -2 10 6 6 9 10 10 10 3 0 -9 9 -8 35 3 19
8 35 12 35 9 0 -3 13 1 29 9 16 9 31 12 35 9 3 -4 6 -1 6 5 0 6 9 9 20 7 11
-2 20 0 20 5 0 5 7 7 15 4 8 -4 22 0 31 7 9 7 23 13 32 14 40 4 82 17 82 26 0
6 4 8 9 5 5 -3 28 3 52 13 24 11 47 17 53 14 5 -4 7 1 3 10 -4 11 -2 14 8 10
8 -3 12 -10 9 -15 -4 -6 13 -8 46 -6 36 3 56 0 66 -9 9 -9 14 -10 14 -3 0 7 7
5 16 -5 12 -12 19 -13 30 -4 11 9 15 8 20 -5 3 -9 10 -13 15 -10 19 12 49 12
46 1 -1 -8 13 -12 40 -12 23 -1 45 -4 49 -8 4 -4 13 -2 21 4 10 9 18 7 35 -7
14 -12 18 -14 13 -4 -7 13 -6 13 7 2 11 -9 18 -10 23 -2 3 5 14 10 23 9 14 0
14 -2 -3 -10 -15 -7 -8 -8 26 -5 28 3 51 1 59 -7 10 -10 11 -9 5 3 -7 12 -6
13 6 3 9 -7 51 -11 110 -11 53 1 101 -2 108 -6 6 -4 11 -2 11 3 0 6 5 11 11
11 5 0 8 -4 5 -8 -3 -4 24 -9 59 -9 35 -1 69 -4 75 -8 5 -3 10 0 10 7 0 11 2
11 9 0 6 -10 34 -13 107 -11 104 2 237 26 227 41 -3 5 1 8 8 7 21 -5 60 21 53
33 -5 8 -1 9 10 5 14 -5 17 -3 13 8 -6 14 8 30 28 30 6 0 10 9 10 20 0 11 6
26 15 33 13 12 13 12 0 6 -13 -7 -13 -5 -2 8 17 21 -1 33 -27 18 -29 -15 -83
-12 -109 6 -12 8 -22 10 -22 5 0 -6 -16 -11 -35 -11 l-35 0 -1 128 c-1 70 -1
130 0 134 0 4 -50 5 -112 2 -61 -3 -138 -6 -169 -7 l-58 -2 0 -127 0 -128 -35
0 -35 0 0 124 c0 104 -3 125 -16 130 -23 9 -56 7 -50 -2 2 -4 -12 -6 -31 -4
l-36 5 35 -36 c47 -47 56 -94 29 -151 -34 -69 -112 -94 -184 -60 -68 33 -93
130 -48 193 12 17 18 31 12 31 -6 0 -11 -4 -11 -10 0 -5 -8 -10 -17 -10 -14 0
-15 2 -4 9 9 6 4 10 -17 13 -17 2 -29 1 -26 -3 2 -4 0 -11 -6 -14 -6 -4 -9 -1
-8 6 4 16 -22 19 -41 5 -12 -9 -13 -8 -6 3 6 11 4 13 -7 8 -9 -3 -20 -1 -25 4
-5 5 -32 11 -61 12 -28 2 -50 1 -47 -1 2 -2 -2 -11 -10 -19 -20 -20 -19 -88 2
-124 33 -55 129 -75 163 -34 17 20 33 19 55 -5 15 -17 16 -22 4 -36 -52 -63
-209 -56 -271 13 -28 30 -48 89 -48 137 0 25 -5 48 -12 52 -6 4 -8 3 -4 -4 3
-6 2 -13 -4 -17 -5 -3 -10 -1 -10 6 0 8 -4 8 -15 -1 -8 -7 -12 -17 -8 -24 4
-8 2 -7 -7 1 -14 12 -64 -3 -55 -17 3 -5 -2 -11 -11 -14 -8 -3 -12 -2 -9 4 3
5 -4 8 -16 7 -18 -1 -20 -6 -15 -39 l6 -37 -97 -3 -98 -3 23 -22 c26 -27 68
-30 94 -6 18 16 20 15 41 -5 l21 -22 -21 -22 c-32 -31 -117 -36 -161 -8 -63
39 -78 130 -32 192 24 33 26 45 3 27 -9 -8 -14 -9 -10 -3 4 7 0 15 -9 18 -8 3
-12 2 -9 -4 3 -5 -7 -3 -22 5 l-28 15 -3 -130 -3 -130 -34 0 -35 0 -1 128 c-1
70 -1 130 0 134 1 7 -26 4 -35 -4 -3 -4 -11 -5 -17 -2 -9 3 -12 -35 -12 -138
-1 -155 -8 -185 -56 -220 -33 -25 -124 -26 -173 -3 -41 20 -42 22 -16 53 18
22 21 23 42 8 42 -29 128 -13 128 24 0 5 3 16 6 25 6 16 5 16 -24 1 -17 -9
-40 -16 -52 -16 -32 0 -76 26 -99 59 -34 47 -26 141 14 174 6 5 1 6 -10 2 -11
-4 -30 -7 -43 -6 -14 0 -21 -3 -16 -10 4 -7 0 -9 -14 -4 -21 6 -21 5 -7 -22
59 -112 -72 -237 -186 -178 -61 32 -90 131 -53 183 15 22 15 23 -13 16 -15 -4
-36 -7 -46 -6 -14 1 -15 -3 -7 -18 16 -30 11 -92 -10 -127 -52 -85 -174 -83
-231 3 -24 37 -24 90 1 137 l20 37 -24 0 c-14 0 -27 4 -31 9 -3 6 -14 10 -25
10 -11 1 -29 1 -40 2 -11 0 -20 5 -20 11 0 5 -6 8 -14 5 -8 -3 -17 -3 -21 1
-4 4 -21 7 -38 7 -18 1 -36 3 -42 6 -5 3 -20 3 -32 1z m2709 -43 c32 -17 48
-71 48 -159 l0 -81 -47 0 c-27 0 -69 -1 -95 -2 -61 -2 -88 21 -88 74 0 47 24
66 99 78 62 10 72 18 47 37 -24 17 -44 17 -76 -1 -22 -12 -27 -11 -42 2 -24
22 -23 30 10 47 32 18 115 21 144 5z"/>
<path d="M4536 608 c-34 -49 -5 -118 49 -118 54 0 83 69 49 118 -10 15 -25 22
-49 22 -24 0 -39 -7 -49 -22z"/>
<path d="M4846 608 c-51 -72 33 -159 94 -98 43 43 14 120 -45 120 -24 0 -39
-7 -49 -22z"/>
</g>
</svg>
